<svg xmlns="http://www.w3.org/2000/svg" width="512" height="512" viewBox="0 0 512 512" version="1.1"><path d="M 223 1.080 C 220.525 1.545, 214.675 2.590, 210 3.403 C 195.495 5.925, 179.554 10.003, 172.500 12.996 C 171.400 13.463, 168.250 14.650, 165.500 15.634 C 162.750 16.617, 159.375 18, 158 18.705 C 156.625 19.411, 155.097 19.990, 154.605 19.994 C 152.088 20.011, 123.288 35.690, 113.500 42.372 C 104.304 48.650, 91.038 58.951, 85.676 63.978 C 83.024 66.465, 80.422 68.655, 79.896 68.843 C 76.863 69.932, 48.001 104.231, 41.687 114.250 L 39.954 117 85.477 117 L 131 117 131 101 C 131 92.200, 131.239 85, 131.532 85 C 131.825 85, 144.580 92.200, 159.877 101 L 187.690 117 258.387 117 L 329.085 117 345.292 107.624 C 354.207 102.467, 366.588 95.267, 372.808 91.624 C 379.027 87.981, 384.314 85, 384.558 85 C 384.801 85, 385 92.200, 385 101 L 385 117 428.577 117 L 472.155 117 467.451 110.271 C 444.688 77.709, 414.979 50.765, 381 31.866 C 370.986 26.296, 365.861 23.797, 351.500 17.481 C 340.114 12.474, 317.667 6.055, 302.500 3.470 C 298.100 2.720, 291.800 1.635, 288.500 1.059 C 281.454 -0.171, 229.574 -0.154, 223 1.080 M 51.074 410.750 C 59.202 421.187, 72.323 436.104, 77.717 441.039 C 86.349 448.937, 90.403 452.446, 95 455.996 C 97.475 457.907, 100.136 460.081, 100.913 460.827 C 101.689 461.572, 107.996 465.938, 114.928 470.528 C 129.944 480.471, 144.874 488.315, 159.665 494.030 C 165.624 496.332, 171.400 498.596, 172.500 499.061 C 177.342 501.106, 200.404 507.020, 209.500 508.549 C 213.900 509.289, 220.200 510.365, 223.500 510.941 C 231.287 512.300, 280.713 512.300, 288.500 510.941 C 291.800 510.365, 298.100 509.289, 302.500 508.549 C 311.596 507.020, 334.658 501.106, 339.500 499.061 C 340.600 498.596, 346.376 496.332, 352.335 494.030 C 366.830 488.429, 382.041 480.488, 396 471.234 C 406.759 464.102, 410.940 460.981, 423.500 450.709 C 432.086 443.687, 447.113 427.976, 456.703 415.997 L 465.907 404.500 403.276 404.242 L 340.645 403.985 334.073 407.888 C 330.458 410.034, 318.500 416.953, 307.500 423.263 C 296.500 429.572, 283 437.348, 277.500 440.542 C 272 443.736, 265.700 447.390, 263.500 448.663 C 261.300 449.935, 258.989 450.981, 258.364 450.988 C 257.367 450.999, 244.224 443.518, 189.274 411.667 L 176.048 404 110.933 404 L 45.817 404 51.074 410.750" stroke="none" fill="#fc7f04" fill-rule="evenodd"/><path d="M 39.240 118.250 C 37.599 120.291, 24.584 144.048, 21.846 150 C 20.455 153.025, 18.084 158.875, 16.578 163 C 15.072 167.125, 13.459 171.400, 12.994 172.500 C 9.239 181.376, 4.339 202.184, 0.985 223.500 C -0.229 231.211, -0.174 282.935, 1.055 289.500 C 1.570 292.250, 2.640 298.325, 3.433 303 C 4.227 307.675, 5.590 314.200, 6.462 317.500 C 8.822 326.430, 12.027 337.231, 12.990 339.500 C 13.457 340.600, 15.068 344.875, 16.570 349 C 21.380 362.213, 31.710 382.188, 40.746 395.750 L 46.243 404 110.844 404 C 164.651 404, 175.115 403.780, 173.473 402.681 C 172.388 401.956, 164.616 397.402, 156.203 392.561 C 147.790 387.721, 141.040 383.628, 141.203 383.466 C 141.366 383.305, 148.475 379.157, 157 374.250 C 165.525 369.342, 178.575 361.805, 186 357.502 C 193.425 353.198, 203.775 347.211, 209 344.198 C 214.225 341.185, 224.350 335.329, 231.500 331.184 C 250.324 320.273, 257.882 316, 258.359 316 C 258.815 316, 300.688 340.017, 345.955 366.243 C 361.605 375.310, 374.532 383.127, 374.682 383.614 C 374.832 384.102, 367.539 388.721, 358.477 393.880 C 349.415 399.039, 342 403.426, 342 403.630 C 342 403.833, 369.845 404, 403.878 404 L 465.757 404 471.254 395.750 C 480.290 382.188, 490.620 362.213, 495.430 349 C 496.932 344.875, 498.543 340.600, 499.010 339.500 C 499.948 337.289, 503.259 326.005, 505.024 319 C 505.648 316.525, 506.562 312.925, 507.056 311 C 508.074 307.025, 510.001 295.587, 510.720 289.250 C 510.985 286.913, 511.606 285, 512.101 285 C 512.613 285, 513 272.274, 513 255.441 C 513 238.816, 512.617 226.118, 512.125 226.422 C 511.644 226.720, 510.999 224.834, 510.691 222.231 C 510.130 217.483, 508.020 205.829, 506.034 196.509 C 504.890 191.142, 500.394 175.779, 499.006 172.500 C 498.541 171.400, 496.940 167.125, 495.449 163 C 491.662 152.522, 481.440 132.071, 474.330 120.750 L 471.975 117 428.497 117 L 385.020 117 384.760 162.913 L 384.500 208.825 371 201.049 C 350.114 189.017, 314.480 168.399, 304.500 162.572 C 299.550 159.681, 291.575 155.108, 286.778 152.408 C 281.981 149.709, 278.043 147.268, 278.028 146.986 C 278.013 146.703, 289.277 139.953, 303.061 131.986 L 328.121 117.500 292.987 117.237 C 273.664 117.093, 242.249 117.093, 223.177 117.237 L 188.500 117.500 213.500 131.909 C 227.250 139.834, 238.630 146.414, 238.788 146.530 C 239.276 146.890, 230.515 152.125, 204.500 167.019 C 179.315 181.437, 166.007 189.138, 144.051 202 C 137.479 205.850, 131.854 209, 131.551 209 C 131.248 209, 131 188.300, 131 163 L 131 117 85.622 117 C 50.523 117, 40.017 117.283, 39.240 118.250 M 251.500 161.695 C 248.200 163.640, 240.775 167.960, 235 171.295 C 218.960 180.558, 207.671 187.105, 194.500 194.784 C 187.900 198.632, 180.226 203.067, 177.447 204.640 C 153.148 218.394, 141.209 225.603, 141.799 226.164 C 142.185 226.529, 153.975 233.436, 168 241.512 C 182.025 249.588, 197.550 258.550, 202.500 261.427 C 207.450 264.304, 219.150 271.088, 228.500 276.503 C 237.850 281.918, 248.354 288.022, 251.843 290.067 L 258.186 293.786 263.843 290.558 C 273.776 284.890, 310.688 263.604, 346 243.180 C 355.075 237.932, 365.313 232.060, 368.750 230.133 C 372.188 228.205, 375 226.281, 375 225.856 C 375 225.432, 373.087 223.988, 370.750 222.648 C 351.824 211.801, 280.659 170.744, 273.500 166.542 C 264.373 161.185, 258.344 157.936, 257.800 158.079 C 257.635 158.122, 254.800 159.749, 251.500 161.695 M 0.443 256.500 C 0.443 273, 0.580 279.890, 0.748 271.812 C 0.915 263.733, 0.916 250.233, 0.748 241.812 C 0.581 233.390, 0.444 240, 0.443 256.500 M 131 305 C 131 339.100, 131.235 367, 131.521 367 C 131.808 367, 133.721 365.939, 135.771 364.643 C 139.998 361.970, 144.156 359.560, 195.500 330.015 C 215.850 318.306, 233.992 307.832, 235.815 306.741 L 239.129 304.757 236.259 303.011 C 233.728 301.472, 210.147 287.830, 183.500 272.488 C 178.550 269.638, 170.450 264.946, 165.500 262.061 C 148.827 252.344, 132.210 243, 131.603 243 C 131.271 243, 131 270.900, 131 305 M 372 249.882 C 359.658 257.172, 325.832 276.766, 296.262 293.753 C 286.231 299.515, 278.259 304.610, 278.546 305.075 C 278.833 305.539, 282.540 307.883, 286.784 310.283 C 291.028 312.684, 305.075 320.752, 318 328.213 C 330.925 335.674, 350.275 346.843, 361 353.033 C 371.725 359.223, 381.436 364.900, 382.580 365.648 C 383.724 366.395, 384.849 366.818, 385.080 366.587 C 385.832 365.836, 384.992 242.999, 384.235 243.045 C 383.831 243.069, 378.325 246.146, 372 249.882" stroke="none" fill="#fce204" fill-rule="evenodd"/></svg>